<?xml version="1.0" encoding="UTF-8"?>
<svg width="24px" height="24px" viewBox="0 0 24 24" version="1.1" xmlns="http://www.w3.org/2000/svg" xmlns:xlink="http://www.w3.org/1999/xlink">
    <title>3036F17B-3FCF-4A60-90FB-335F8BE78C3C</title>
    <g id="TML-Website-Home-Page---logo" stroke="none" stroke-width="1" fill="none" fill-rule="evenodd">
        <g id="1.Home-Page" transform="translate(-1081.000000, -3000.000000)" fill="#FFFFFF" fill-rule="nonzero">
            <g id="footer" transform="translate(0.000000, 2456.000000)">
                <g id="Social-icns" transform="translate(1081.000000, 544.000000)">
                    <g id="icns/messenger">
                        <g id="messenger" transform="translate(3.000000, 3.000000)">
                            <path d="M9,0 C4.02975,0 0,3.7305 0,8.332875 C0,10.95525 1.308375,13.294125 3.353625,14.821875 L3.353625,18 L6.418125,16.318125 C7.236,16.54425 8.10225,16.666875 9,16.666875 C13.97025,16.666875 18,12.936375 18,8.334 C18,3.731625 13.97025,0 9,0 Z M9.894375,11.221875 L7.60275,8.77725 L3.130875,11.221875 L8.0505,5.999625 L10.398375,8.44425 L14.814,5.999625 L9.894375,11.221875 Z" id="Shape"></path>
                        </g>
                    </g>
                </g>
            </g>
        </g>
    </g>
</svg>