<?xml version="1.0" encoding="UTF-8"?>
<svg width="24px" height="24px" viewBox="0 0 24 24" version="1.1" xmlns="http://www.w3.org/2000/svg" xmlns:xlink="http://www.w3.org/1999/xlink">
    <title>26996F66-5E9F-44AF-AF43-85E7ACA293AB</title>
    <g id="TML-Website-Home-Page---logo" stroke="none" stroke-width="1" fill="none" fill-rule="evenodd">
        <g id="1.Home-Page" transform="translate(-1121.000000, -3000.000000)" fill="#FFFFFF" fill-rule="nonzero">
            <g id="footer" transform="translate(0.000000, 2456.000000)">
                <g id="Social-icns" transform="translate(1081.000000, 544.000000)">
                    <g id="icns/messenger" transform="translate(40.000000, 0.000000)">
                        <g id="facebook" transform="translate(7.000000, 3.000000)">
                            <path d="M7.30768676,2.99998242 L9.61537352,2.99998242 C9.82778888,2.99998242 10,2.8320765 10,2.62497144 L10,0.37497583 C10,0.167905922 9.82778888,0 9.61537352,0 L7.30768676,0 C4.97216353,0.00249608887 3.07946375,1.84784405 3.07693972,4.12498022 L3.07693972,6.74998682 L0.384626479,6.74998682 C0.172211124,6.74998682 0,6.91789274 0,7.1249978 L0,9.37499341 C0,9.58209847 0.172211124,9.75000439 0.384626479,9.75000439 L3.07693972,9.75000439 L3.07693972,17.624989 C3.07693972,17.8320941 3.24915084,18 3.4615662,18 L5.76925296,18 C5.98166831,18 6.15387944,17.8320941 6.15387944,17.624989 L6.15387944,9.75000439 L8.84619268,9.75000439 C9.01166103,9.74989893 9.15852366,9.64657491 9.21080719,9.4935049 L9.98002409,7.24350929 C10.0471633,7.04702139 9.93819726,6.83467806 9.73667131,6.76921725 C9.69758486,6.75652587 9.65662342,6.75002197 9.61540958,6.74998682 L6.15387944,6.74998682 L6.15387944,4.12498022 C6.15384338,3.50366503 6.6704407,2.99998242 7.30768676,2.99998242 Z" id="Path"></path>
                        </g>
                    </g>
                </g>
            </g>
        </g>
    </g>
</svg>