<?xml version="1.0" encoding="UTF-8"?>
<svg width="24px" height="24px" viewBox="0 0 24 24" version="1.1" xmlns="http://www.w3.org/2000/svg" xmlns:xlink="http://www.w3.org/1999/xlink">
    <title>4FC1483F-EBC7-4BE3-8F0D-DFB10AF6D8EE</title>
    <g id="TML-Website-Home-Page---logo" stroke="none" stroke-width="1" fill="none" fill-rule="evenodd">
        <g id="1.Home-Page" transform="translate(-1161.000000, -3000.000000)" fill="#FFFFFF" fill-rule="nonzero">
            <g id="footer" transform="translate(0.000000, 2456.000000)">
                <g id="Social-icns" transform="translate(1081.000000, 544.000000)">
                    <g id="icns/messenger" transform="translate(80.000000, 0.000000)">
                        <g id="twitter" transform="translate(4.000000, 5.000000)">
                            <path d="M15.9080697,1.60856283 C15.8016985,1.49201067 15.6304349,1.46172083 15.4906719,1.53468438 C15.3469957,1.60009997 15.1983629,1.65394857 15.0461432,1.69570737 C15.2835382,1.39130595 15.462791,1.04557049 15.5748362,0.675884171 C15.624174,0.489864707 15.5136614,0.29897665 15.3280171,0.249539192 C15.2288852,0.223137694 15.1231987,0.241925888 15.0391974,0.300871807 C14.5103087,0.587661344 13.9481586,0.807989686 13.3654321,0.956824862 C12.1658373,-0.177720692 10.3385478,-0.319138616 8.97926568,0.617363029 C7.93221669,1.32673991 7.35578376,2.5527758 7.47663348,3.81341465 C5.20693493,3.6196185 3.11867401,2.4926209 1.70819543,0.700292487 C1.63573777,0.612461761 1.52610562,0.564102582 1.41252776,0.569951429 C1.29735205,0.576878554 1.19313303,0.64059504 1.13427341,0.740025434 C0.65557027,1.52413031 0.516883318,2.46997704 0.750267403,3.35890371 C0.869943188,3.81563655 1.0750877,4.2454451 1.35480947,4.62548943 C1.2288075,4.5636681 1.11024042,4.48766577 1.00142351,4.39895282 C0.85223639,4.27769544 0.633200355,4.30056803 0.512154984,4.45005671 C0.461936807,4.51210676 0.434479856,4.5895468 0.434447246,4.66943747 C0.455121483,5.95902647 1.16182819,7.13928452 2.28769362,7.76442494 C2.13579994,7.74573477 1.98586282,7.71354977 1.83967575,7.66822938 C1.65572722,7.6127797 1.46173505,7.71724206 1.40639723,7.90156242 C1.38226642,7.98197589 1.38790781,8.06843426 1.42227791,8.14502475 C1.91092686,9.24183053 2.88783344,10.0429265 4.05746043,10.3059285 C2.94310605,10.9359049 1.65993381,11.200606 0.387848691,11.0629457 C0.222911329,11.0418376 0.0666480155,11.1423136 0.0170494137,11.3013434 C-0.0340818208,11.4591316 0.0328322692,11.6311334 0.177062786,11.7126252 C1.7346415,12.6399451 3.5065279,13.144449 5.31800189,13.1764706 C7.0558769,13.1700989 8.75321866,12.6499764 10.1973826,11.681257 C12.9542952,9.84795403 14.6725721,6.55639303 14.4332858,3.61128635 C15.0227624,3.17406055 15.5341073,2.64001837 15.9456681,2.03173832 C16.0302564,1.89842383 16.0148322,1.72478823 15.9080697,1.60856283 Z" id="Path"></path>
                        </g>
                    </g>
                </g>
            </g>
        </g>
    </g>
</svg>