<?xml version="1.0" encoding="UTF-8"?>
<svg width="24px" height="24px" viewBox="0 0 24 24" version="1.1" xmlns="http://www.w3.org/2000/svg" xmlns:xlink="http://www.w3.org/1999/xlink">
    <title>827ADB2A-475E-4779-B663-C9BFC2A75044</title>
    <g id="TML-Website-Home-Page---logo" stroke="none" stroke-width="1" fill="none" fill-rule="evenodd">
        <g id="1.Home-Page" transform="translate(-1201.000000, -3000.000000)" fill="#FFFFFF" fill-rule="nonzero">
            <g id="footer" transform="translate(0.000000, 2456.000000)">
                <g id="Social-icns" transform="translate(1081.000000, 544.000000)">
                    <g id="icns/messenger" transform="translate(120.000000, 0.000000)">
                        <g id="instagram" transform="translate(3.000000, 3.000000)">
                            <path d="M12.375,0 L5.625,0 C2.518875,0 0,2.518875 0,5.625 L0,12.375 C0,15.481125 2.518875,18 5.625,18 L12.375,18 C15.481125,18 18,15.481125 18,12.375 L18,5.625 C18,2.518875 15.481125,0 12.375,0 Z M16.3125,12.375 C16.3125,14.54625 14.54625,16.3125 12.375,16.3125 L5.625,16.3125 C3.45375,16.3125 1.6875,14.54625 1.6875,12.375 L1.6875,5.625 C1.6875,3.45375 3.45375,1.6875 5.625,1.6875 L12.375,1.6875 C14.54625,1.6875 16.3125,3.45375 16.3125,5.625 L16.3125,12.375 Z" id="Shape"></path>
                            <path d="M9,4.5 C6.514875,4.5 4.5,6.514875 4.5,9 C4.5,11.485125 6.514875,13.5 9,13.5 C11.485125,13.5 13.5,11.485125 13.5,9 C13.5,6.514875 11.485125,4.5 9,4.5 Z M9,11.8125 C7.44975,11.8125 6.1875,10.55025 6.1875,9 C6.1875,7.448625 7.44975,6.1875 9,6.1875 C10.55025,6.1875 11.8125,7.448625 11.8125,9 C11.8125,10.55025 10.55025,11.8125 9,11.8125 Z" id="Shape"></path>
                            <circle id="Oval" cx="13.5" cy="4.5" r="1"></circle>
                        </g>
                    </g>
                </g>
            </g>
        </g>
    </g>
</svg>