<?xml version="1.0" encoding="UTF-8"?>
<svg width="24px" height="24px" viewBox="0 0 24 24" version="1.1" xmlns="http://www.w3.org/2000/svg" xmlns:xlink="http://www.w3.org/1999/xlink">
    <title>BBFFE1DF-CB14-4609-A9F2-8082CC03AF1D</title>
    <g id="TML-Website-Home-Page---logo" stroke="none" stroke-width="1" fill="none" fill-rule="evenodd">
        <g id="1.Home-Page" transform="translate(-1241.000000, -3000.000000)" fill="#FFFFFF" fill-rule="nonzero">
            <g id="footer" transform="translate(0.000000, 2456.000000)">
                <g id="Social-icns" transform="translate(1081.000000, 544.000000)">
                    <g id="icns/messenger" transform="translate(160.000000, 0.000000)">
                        <g id="linkedin" transform="translate(4.000000, 4.000000)">
                            <path d="M14.8460693,0 L1.15393066,0 C0.516601562,0 0,0.516601563 0,1.15393066 L0,14.8460693 C0,15.4833984 0.516601562,16 1.15393066,16 L14.8460693,16 C15.4833984,16 16,15.4833984 16,14.8460693 L16,1.15393066 C16,0.516601562 15.4833984,0 14.8460693,0 Z M5.67529297,12.09375 L3.72692872,12.09375 L3.72692872,6.23205566 L5.67529297,6.23205566 L5.67529297,12.09375 Z M4.70117187,5.43164062 L4.68847656,5.43164062 C4.03466797,5.43164062 3.61181641,4.98156738 3.61181641,4.41906738 C3.61181641,3.84387206 4.04760744,3.40625 4.71411131,3.40625 C5.38061525,3.40625 5.7907715,3.84387206 5.80346681,4.41906738 C5.80346681,4.98156738 5.38061525,5.43164062 4.70117187,5.43164062 Z M12.7006836,12.09375 L10.7525635,12.09375 L10.7525635,8.95788575 C10.7525635,8.16979981 10.470459,7.63232422 9.76550294,7.63232422 C9.22729494,7.63232422 8.90673828,7.99487306 8.76586912,8.34484862 C8.71435547,8.47009278 8.70178222,8.64514159 8.70178222,8.8203125 L8.70178222,12.09375 L6.75354003,12.09375 C6.75354003,12.09375 6.77905275,6.78198244 6.75354003,6.23205566 L8.70178222,6.23205566 L8.70178222,7.06201172 C8.96069338,6.66259766 9.42395019,6.09448244 10.4576416,6.09448244 C11.7395019,6.09448244 12.7006836,6.93225097 12.7006836,8.732666 L12.7006836,12.09375 Z" id="Shape"></path>
                        </g>
                    </g>
                </g>
            </g>
        </g>
    </g>
</svg>