<?xml version="1.0" encoding="UTF-8"?>
<svg width="24px" height="24px" viewBox="0 0 24 24" version="1.1" xmlns="http://www.w3.org/2000/svg" xmlns:xlink="http://www.w3.org/1999/xlink">
    <title>A933EA3C-C464-4B35-B6D2-40600C02FBCE</title>
    <g id="TML-Website-Home-Page---Eng" stroke="none" stroke-width="1" fill="none" fill-rule="evenodd">
        <g id="1.-Home-Page-Navigation-Style" transform="translate(-1281.000000, -3000.000000)" fill="#FFFFFF" fill-rule="nonzero">
            <g id="footer" transform="translate(0.000000, 2456.000000)">
                <g id="Social-icns" transform="translate(1081.000000, 544.000000)">
                    <g id="icns/messenger" transform="translate(200.000000, 0.000000)">
                        <g id="youtube" transform="translate(3.000000, 6.000000)">
                            <path d="M17.629062,1.87771326 C17.4216406,1.14346985 16.8136585,0.564673872 16.0426398,0.3669648 C14.6340858,0 8.99976009,0 8.99976009,0 C8.99976009,0 3.36565408,0 1.95710011,0.353051918 C1.20091284,0.550551788 0.578099303,1.14357446 0.370677893,1.87771326 C0,3.21878758 0,6 0,6 C0,6 0,8.79522987 0.370677893,10.1222867 C0.578319015,10.8564255 1.18608132,11.4352215 1.95720997,11.6329306 C3.38048556,12 8.99997981,12 8.99997981,12 C8.99997981,12 14.6340858,12 16.0426398,11.6469481 C16.8137684,11.4493436 17.4216406,10.8705476 17.6292817,10.1364088 C17.9999254,8.79522987 17.9999254,6.01412208 17.9999254,6.01412208 C17.9999254,6.01412208 18.0146813,3.21878758 17.629062,1.87771326 L17.629062,1.87771326 Z M7.23910044,8.55813953 L7.23910044,3.44186047 L11.9347332,6 L7.23910044,8.55813953 Z" id="Shape"></path>
                        </g>
                    </g>
                </g>
            </g>
        </g>
    </g>
</svg>